<svg width="53" height="53" viewBox="0 0 53 53" fill="none" xmlns="http://www.w3.org/2000/svg">
<path d="M37.4727 46.8738L29.8108 43.0428C27.6752 41.986 25.1873 41.986 23.0517 43.0428L15.3678 46.8738C8.80676 50.1543 1.87144 43.0869 5.30607 36.5919L7.11146 33.2013C7.35364 32.7169 7.74995 32.3427 8.23432 32.1445L36.0856 19.6169C37.2305 19.1105 38.5736 19.5729 39.146 20.6737L47.5344 36.6139C50.969 43.0869 44.0337 50.1543 37.4727 46.8738Z" fill="#7E22CE"/>
<path opacity="0.4" d="M34.3463 16.9308L16.1164 25.1431C14.0688 26.0678 11.9992 23.8661 13.056 21.8846L19.7491 9.18088C22.5893 3.78675 30.2952 3.78675 33.1354 9.18088L35.4912 13.6723C36.1077 14.8832 35.6013 16.3584 34.3463 16.9308Z" fill="#7E22CE"/>
</svg>
