<svg width="62" height="61" viewBox="0 0 62 61" fill="none" xmlns="http://www.w3.org/2000/svg">
<path d="M30.9209 60.3652C47.6087 60.3652 61.1367 47.0453 61.1367 30.6143C61.1367 14.1832 47.6087 0.863281 30.9209 0.863281C14.2332 0.863281 0.705078 14.1832 0.705078 30.6143C0.705078 47.0453 14.2332 60.3652 30.9209 60.3652Z" fill="#DA0000"/>
<path d="M50.2191 21.0676C49.9908 20.2212 49.5393 19.4492 48.9104 18.83C48.2815 18.2108 47.4975 17.7663 46.6379 17.5415C43.5179 16.7305 30.9212 16.7305 30.9212 16.7305C30.9212 16.7305 18.3201 16.7305 15.1777 17.5591C14.3222 17.7873 13.5428 18.2333 12.9181 18.8523C12.2934 19.4713 11.8453 20.2415 11.6189 21.0852C10.7773 24.1705 10.7773 30.6319 10.7773 30.6319C10.7773 30.6319 10.7773 37.0846 11.6189 40.1787C11.8453 41.0224 12.2934 41.7926 12.9181 42.4116C13.5428 43.0306 14.3222 43.4766 15.1777 43.7047C18.3112 44.5334 30.9212 44.5334 30.9212 44.5334C30.9212 44.5334 43.5179 44.5334 46.6603 43.7047C47.5199 43.48 48.3039 43.0355 48.9328 42.4162C49.5617 41.797 50.0132 41.0251 50.2414 40.1787C51.0875 37.0934 51.0875 30.6319 51.0875 30.6319C51.0875 30.6319 51.0651 24.1617 50.2191 21.0676ZM26.8925 36.5645V24.6641L37.3538 30.6143L26.8925 36.5645Z" fill="white"/>
</svg>
